<svg width="469" height="401" viewBox="0 0 469 401" fill="none" xmlns="http://www.w3.org/2000/svg">
<mask id="mask0_1596_42" style="mask-type:alpha" maskUnits="userSpaceOnUse" x="0" y="201" width="200" height="200">
<circle cx="100" cy="301" r="100" fill="#D9D9D9"/>
</mask>
<g mask="url(#mask0_1596_42)">
<path d="M-363.939 -38.0608L178.061 503.939M-313.939 -38.0608L228.061 503.939M-263.939 -38.0608L278.061 503.939M-213.939 -38.0608L328.061 503.939M-163.939 -38.0608L378.061 503.939M-113.939 -38.0608L428.061 503.939M-63.9395 -38.0608L478.061 503.939" stroke="white" stroke-width="3"/>
<path d="M-373.939 -23.0608L168.061 518.939M-323.939 -23.0608L218.061 518.939M-273.939 -23.0608L268.061 518.939M-223.939 -23.0608L318.061 518.939M-173.939 -23.0608L368.061 518.939M-123.939 -23.0608L418.061 518.939M-73.9395 -23.0608L468.061 518.939" stroke="white" stroke-width="3"/>
</g>
<circle cx="366" cy="103" r="103" fill="white"/>
</svg>
