<svg width="1037" height="537" viewBox="0 0 1037 537" fill="none" xmlns="http://www.w3.org/2000/svg">
<path d="M1013.92 208.005C1013.78 208.085 1013.63 208.167 1013.49 208.25C1002.72 214.463 999.037 228.224 1005.25 238.986C1011.46 249.747 1025.22 253.435 1035.99 247.221C1036.13 247.138 1036.27 247.053 1036.42 246.967L1031.91 239.169C1031.77 239.257 1031.63 239.343 1031.49 239.427C1025.03 243.155 1016.77 240.943 1013.04 234.486C1009.32 228.029 1011.53 219.772 1017.99 216.044C1018.13 215.961 1018.28 215.88 1018.42 215.802L1013.92 208.005Z" fill="#9DC6D5"/>
<path d="M834.001 331.462C834.161 331.508 834.322 331.553 834.483 331.596C846.486 334.812 858.824 327.689 862.04 315.686C865.256 303.683 858.133 291.346 846.13 288.13C845.968 288.086 845.807 288.045 845.645 288.005L843.315 296.702C843.477 296.739 843.639 296.78 843.8 296.823C851.002 298.753 855.276 306.155 853.346 313.357C851.417 320.559 844.014 324.833 836.812 322.903C836.651 322.86 836.49 322.814 836.332 322.765L834.001 331.462Z" fill="#EBCF77"/>
<circle cx="248.5" cy="231.5" r="21.5" stroke="#6434EF" stroke-width="12"/>
<rect x="422.757" y="297.466" width="19.217" height="19.217" transform="rotate(33.4941 422.757 297.466)" stroke="#E7C562" stroke-width="6"/>
<path d="M606.082 52.3528L597.565 20.5652L629.353 29.0827L606.082 52.3528Z" stroke="#DC178D" stroke-width="5"/>
<path d="M0.00142439 530.461C0.161051 530.508 0.321573 530.553 0.482978 530.596C12.486 533.812 24.8235 526.689 28.0397 514.686C31.2559 502.683 24.1328 490.346 12.1298 487.129C11.9684 487.086 11.807 487.045 11.6455 487.005L9.31515 495.702C9.47698 495.739 9.63877 495.779 9.80046 495.823C17.0023 497.752 21.2761 505.155 19.3464 512.357C17.4167 519.559 10.0141 523.832 2.81235 521.903C2.65066 521.859 2.49044 521.813 2.33174 521.764L0.00142439 530.461Z" fill="#6434EF"/>
</svg>
