<svg width="638" height="112" viewBox="0 0 638 112" fill="none" xmlns="http://www.w3.org/2000/svg">
<path d="M0.437085 88.2095C0.433461 88.3757 0.43164 88.5424 0.43164 88.7095C0.43164 101.136 10.5052 111.209 22.9316 111.209C35.358 111.209 45.4316 101.136 45.4316 88.7095C45.4316 88.5424 45.4298 88.3757 45.4262 88.2095L36.4226 88.2095C36.4286 88.3754 36.4316 88.5421 36.4316 88.7095C36.4316 96.1653 30.3875 102.209 22.9316 102.209C15.4758 102.209 9.43164 96.1653 9.43164 88.7095C9.43164 88.5421 9.43469 88.3754 9.44073 88.2095L0.437085 88.2095Z" fill="#EBCF77"/>
<rect x="293.762" y="4.15738" width="19.217" height="19.217" transform="rotate(33.4941 293.762 4.15738)" stroke="#6434EF" stroke-width="6"/>
<path d="M599.024 87.2935L590.506 55.5059L622.294 64.0234L599.024 87.2935Z" stroke="#F15130" stroke-width="5"/>
</svg>
