<svg width="458" height="408" viewBox="0 0 458 408" fill="none" xmlns="http://www.w3.org/2000/svg">
<circle cx="4" cy="4" r="4" fill="#6434EF"/>
<circle cx="54" cy="4" r="4" fill="#6434EF"/>
<circle cx="104" cy="4" r="4" fill="#6434EF"/>
<circle cx="154" cy="4" r="4" fill="#6434EF"/>
<circle cx="204" cy="4" r="4" fill="#6434EF"/>
<circle cx="254" cy="4" r="4" fill="#6434EF"/>
<circle cx="304" cy="4" r="4" fill="#6434EF"/>
<circle cx="354" cy="4" r="4" fill="#6434EF"/>
<circle cx="404" cy="4" r="4" fill="#6434EF"/>
<circle cx="454" cy="4" r="4" fill="#6434EF"/>
<circle cx="4" cy="54" r="4" fill="#6434EF"/>
<circle cx="54" cy="54" r="4" fill="#6434EF"/>
<circle cx="104" cy="54" r="4" fill="#6434EF"/>
<circle cx="154" cy="54" r="4" fill="#6434EF"/>
<circle cx="204" cy="54" r="4" fill="#6434EF"/>
<circle cx="254" cy="54" r="4" fill="#6434EF"/>
<circle cx="304" cy="54" r="4" fill="#6434EF"/>
<circle cx="354" cy="54" r="4" fill="#6434EF"/>
<circle cx="404" cy="54" r="4" fill="#6434EF"/>
<circle cx="454" cy="54" r="4" fill="#6434EF"/>
<circle cx="4" cy="104" r="4" fill="#6434EF"/>
<circle cx="54" cy="104" r="4" fill="#6434EF"/>
<circle cx="104" cy="104" r="4" fill="#6434EF"/>
<circle cx="154" cy="104" r="4" fill="#6434EF"/>
<circle cx="204" cy="104" r="4" fill="#6434EF"/>
<circle cx="254" cy="104" r="4" fill="#6434EF"/>
<circle cx="304" cy="104" r="4" fill="#6434EF"/>
<circle cx="354" cy="104" r="4" fill="#6434EF"/>
<circle cx="404" cy="104" r="4" fill="#6434EF"/>
<circle cx="454" cy="104" r="4" fill="#6434EF"/>
<circle cx="4" cy="154" r="4" fill="#6434EF"/>
<circle cx="54" cy="154" r="4" fill="#6434EF"/>
<circle cx="104" cy="154" r="4" fill="#6434EF"/>
<circle cx="154" cy="154" r="4" fill="#6434EF"/>
<circle cx="204" cy="154" r="4" fill="#6434EF"/>
<circle cx="254" cy="154" r="4" fill="#6434EF"/>
<circle cx="304" cy="154" r="4" fill="#6434EF"/>
<circle cx="354" cy="154" r="4" fill="#6434EF"/>
<circle cx="404" cy="154" r="4" fill="#6434EF"/>
<circle cx="454" cy="154" r="4" fill="#6434EF"/>
<circle cx="4" cy="204" r="4" fill="#6434EF"/>
<circle cx="54" cy="204" r="4" fill="#6434EF"/>
<circle cx="104" cy="204" r="4" fill="#6434EF"/>
<circle cx="154" cy="204" r="4" fill="#6434EF"/>
<circle cx="204" cy="204" r="4" fill="#6434EF"/>
<circle cx="254" cy="204" r="4" fill="#6434EF"/>
<circle cx="304" cy="204" r="4" fill="#6434EF"/>
<circle cx="354" cy="204" r="4" fill="#6434EF"/>
<circle cx="404" cy="204" r="4" fill="#6434EF"/>
<circle cx="454" cy="204" r="4" fill="#6434EF"/>
<circle cx="4" cy="254" r="4" fill="#6434EF"/>
<circle cx="54" cy="254" r="4" fill="#6434EF"/>
<circle cx="104" cy="254" r="4" fill="#6434EF"/>
<circle cx="154" cy="254" r="4" fill="#6434EF"/>
<circle cx="204" cy="254" r="4" fill="#6434EF"/>
<circle cx="254" cy="254" r="4" fill="#6434EF"/>
<circle cx="304" cy="254" r="4" fill="#6434EF"/>
<circle cx="354" cy="254" r="4" fill="#6434EF"/>
<circle cx="404" cy="254" r="4" fill="#6434EF"/>
<circle cx="454" cy="254" r="4" fill="#6434EF"/>
<circle cx="4" cy="304" r="4" fill="#6434EF"/>
<circle cx="54" cy="304" r="4" fill="#6434EF"/>
<circle cx="104" cy="304" r="4" fill="#6434EF"/>
<circle cx="154" cy="304" r="4" fill="#6434EF"/>
<circle cx="204" cy="304" r="4" fill="#6434EF"/>
<circle cx="254" cy="304" r="4" fill="#6434EF"/>
<circle cx="304" cy="304" r="4" fill="#6434EF"/>
<circle cx="354" cy="304" r="4" fill="#6434EF"/>
<circle cx="404" cy="304" r="4" fill="#6434EF"/>
<circle cx="454" cy="304" r="4" fill="#6434EF"/>
<circle cx="4" cy="354" r="4" fill="#6434EF"/>
<circle cx="54" cy="354" r="4" fill="#6434EF"/>
<circle cx="104" cy="354" r="4" fill="#6434EF"/>
<circle cx="154" cy="354" r="4" fill="#6434EF"/>
<circle cx="204" cy="354" r="4" fill="#6434EF"/>
<circle cx="254" cy="354" r="4" fill="#6434EF"/>
<circle cx="304" cy="354" r="4" fill="#6434EF"/>
<circle cx="354" cy="354" r="4" fill="#6434EF"/>
<circle cx="404" cy="354" r="4" fill="#6434EF"/>
<circle cx="454" cy="354" r="4" fill="#6434EF"/>
<circle cx="4" cy="404" r="4" fill="#6434EF"/>
<circle cx="54" cy="404" r="4" fill="#6434EF"/>
<circle cx="104" cy="404" r="4" fill="#6434EF"/>
<circle cx="154" cy="404" r="4" fill="#6434EF"/>
<circle cx="204" cy="404" r="4" fill="#6434EF"/>
<circle cx="254" cy="404" r="4" fill="#6434EF"/>
<circle cx="304" cy="404" r="4" fill="#6434EF"/>
<circle cx="354" cy="404" r="4" fill="#6434EF"/>
<circle cx="404" cy="404" r="4" fill="#6434EF"/>
<circle cx="454" cy="404" r="4" fill="#6434EF"/>
</svg>
