<svg width="105" height="21" viewBox="0 0 105 21" fill="none" xmlns="http://www.w3.org/2000/svg">
<path d="M44.8135 18.8218H31.2589V15.0274L39.4965 4.09386H31.5085V0.349475H44.5639V3.96904L36.2014 15.0774H44.8135V18.8218Z" fill="black"/>
<path d="M52.5492 19.1463C48.7798 19.1463 46.0839 16.4004 46.0839 12.5562C46.0839 8.662 48.7049 5.94108 52.4743 5.94108C56.3934 5.94108 58.8397 8.51222 58.8397 12.5811V13.5547L49.7783 13.6046C50.003 15.2521 50.9266 16.0259 52.6241 16.0259C54.0719 16.0259 55.0953 15.5017 55.3699 14.6031H58.8896C58.4403 17.3739 55.969 19.1463 52.5492 19.1463ZM52.4992 9.0614C50.9765 9.0614 50.1278 9.73539 49.8282 11.2331H55.0205C55.0205 9.91013 54.0469 9.0614 52.4992 9.0614Z" fill="black"/>
<path d="M64.9604 18.8218H61.1162V6.34048H64.7358L64.9854 7.63854C65.7592 6.56515 67.1821 5.94108 68.8047 5.94108C71.7752 5.94108 73.4976 7.83824 73.4976 11.1083V18.8218H69.6534V12.0319C69.6534 10.4593 68.7797 9.43584 67.4567 9.43584C65.934 9.43584 64.9604 10.4343 64.9604 11.982V18.8218Z" fill="black"/>
<path d="M78.1518 4.39341C76.9286 4.39341 75.9551 3.41987 75.9551 2.1967C75.9551 0.973538 76.9286 0.0249622 78.1518 0.0249622C79.35 0.0249622 80.3235 0.973538 80.3235 2.1967C80.3235 3.41987 79.35 4.39341 78.1518 4.39341ZM76.2546 18.8218V6.34048H80.0988V18.8218H76.2546Z" fill="black"/>
<path d="M88.0252 18.8218H84.181V9.53569H81.8095V6.34048H84.181V2.47129H88.0252V6.34048H90.3967V9.53569H88.0252V18.8218Z" fill="black"/>
<path d="M95.9686 18.8218H92.1243V0H95.9935V7.63854C96.7674 6.56515 98.1902 5.94108 99.8128 5.94108C102.783 5.94108 104.506 7.83824 104.506 11.1083V18.8218H100.662V12.0319C100.662 10.4593 99.7878 9.43584 98.4648 9.43584C96.9421 9.43584 95.9686 10.4343 95.9686 11.982V18.8218Z" fill="black"/>
<circle cx="10.6648" cy="10.0849" r="9.98501" fill="black"/>
<rect x="13.161" y="5.09236" width="3.74438" height="10.4507" rx="1.87219" transform="rotate(45 13.161 5.09236)" fill="white"/>
</svg>
