<svg width="105" height="21" viewBox="0 0 105 21" fill="none" xmlns="http://www.w3.org/2000/svg">
<path d="M44.8135 19.6719H31.2589V15.8776L39.4965 4.94401H31.5085V1.19963H44.5639V4.81919L36.2014 15.9275H44.8135V19.6719Z" fill="white"/>
<path d="M52.5492 19.9964C48.7798 19.9964 46.0839 17.2505 46.0839 13.4063C46.0839 9.51215 48.7049 6.79123 52.4743 6.79123C56.3934 6.79123 58.8397 9.36238 58.8397 13.4313V14.4048L49.7783 14.4547C50.003 16.1023 50.9266 16.8761 52.6241 16.8761C54.0719 16.8761 55.0953 16.3519 55.3699 15.4532H58.8896C58.4403 18.2241 55.969 19.9964 52.5492 19.9964ZM52.4992 9.91155C50.9765 9.91155 50.1278 10.5855 49.8282 12.0833H55.0205C55.0205 10.7603 54.0469 9.91155 52.4992 9.91155Z" fill="white"/>
<path d="M64.9604 19.6719H61.1162V7.19063H64.7358L64.9854 8.48869C65.7592 7.4153 67.1821 6.79123 68.8047 6.79123C71.7752 6.79123 73.4976 8.68839 73.4976 11.9585V19.6719H69.6534V12.8821C69.6534 11.3095 68.7797 10.286 67.4567 10.286C65.934 10.286 64.9604 11.2845 64.9604 12.8322V19.6719Z" fill="white"/>
<path d="M78.1518 5.24356C76.9286 5.24356 75.9551 4.27002 75.9551 3.04685C75.9551 1.82369 76.9286 0.875113 78.1518 0.875113C79.35 0.875113 80.3235 1.82369 80.3235 3.04685C80.3235 4.27002 79.35 5.24356 78.1518 5.24356ZM76.2546 19.6719V7.19063H80.0988V19.6719H76.2546Z" fill="white"/>
<path d="M88.0252 19.6719H84.181V10.3858H81.8095V7.19063H84.181V3.32144H88.0252V7.19063H90.3967V10.3858H88.0252V19.6719Z" fill="white"/>
<path d="M95.9686 19.6719H92.1243V0.850151H95.9935V8.48869C96.7674 7.4153 98.1902 6.79123 99.8128 6.79123C102.783 6.79123 104.506 8.68839 104.506 11.9585V19.6719H100.662V12.8821C100.662 11.3095 99.7878 10.286 98.4648 10.286C96.9421 10.286 95.9686 11.2845 95.9686 12.8322V19.6719Z" fill="white"/>
<circle cx="10.6648" cy="10.935" r="9.98501" fill="white"/>
<rect x="13.161" y="5.9425" width="3.74438" height="10.4507" rx="1.87219" transform="rotate(45 13.161 5.9425)" fill="black"/>
</svg>
