<svg width="32" height="24" viewBox="0 0 32 24" fill="none" xmlns="http://www.w3.org/2000/svg">
<path d="M6.88 23.048C4.816 23.048 3.15333 22.3313 1.892 20.898C0.630667 19.4073 0 17.4293 0 14.964C0 11.8107 0.917333 8.858 2.752 6.106C4.58667 3.354 6.85133 1.31867 9.546 0L10.406 1.462C9.25933 2.37933 8.22733 3.49733 7.31 4.816C6.45 6.13467 5.762 7.74 5.246 9.632L7.052 10.148C8.88667 10.7213 10.32 11.5813 11.352 12.728C12.4413 13.8747 12.986 15.2793 12.986 16.942C12.986 18.7767 12.384 20.2673 11.18 21.414C9.976 22.5033 8.54267 23.048 6.88 23.048ZM24.94 23.048C22.876 23.048 21.2133 22.3313 19.952 20.898C18.6907 19.4073 18.06 17.4293 18.06 14.964C18.06 11.8107 18.9773 8.858 20.812 6.106C22.6467 3.354 24.9113 1.31867 27.606 0L28.466 1.462C27.3193 2.37933 26.2873 3.49733 25.37 4.816C24.51 6.13467 23.822 7.74 23.306 9.632L25.112 10.148C26.9467 10.7213 28.38 11.5813 29.412 12.728C30.5013 13.8747 31.046 15.2793 31.046 16.942C31.046 18.7767 30.444 20.2673 29.24 21.414C28.036 22.5033 26.6027 23.048 24.94 23.048Z" fill="black"/>
</svg>
